<mxfile host="app.diagrams.net" agent="Mozilla/5.0 (Windows NT 10.0; Win64; x64) AppleWebKit/537.36 (KHTML, like Gecko) Chrome/131.0.0.0 Safari/537.36" version="25.0.0">
  <diagram name="Page-1" id="ZG4kZh1E_lLk5s9Na1Fp">
    <mxGraphModel dx="955" dy="598" grid="1" gridSize="10" guides="1" tooltips="1" connect="1" arrows="1" fold="1" page="1" pageScale="1" pageWidth="850" pageHeight="1100" background="#000000" math="0" shadow="0">
      <root>
        <mxCell id="0" />
        <mxCell id="1" parent="0" />
        <mxCell id="IGG7brt2KkBzuUb34U7j-7" style="edgeStyle=orthogonalEdgeStyle;rounded=0;orthogonalLoop=1;jettySize=auto;html=1;exitX=0.5;exitY=1;exitDx=0;exitDy=0;entryX=0.5;entryY=0;entryDx=0;entryDy=0;" edge="1" parent="1" source="IGG7brt2KkBzuUb34U7j-1" target="IGG7brt2KkBzuUb34U7j-2">
          <mxGeometry relative="1" as="geometry" />
        </mxCell>
        <mxCell id="IGG7brt2KkBzuUb34U7j-10" style="edgeStyle=orthogonalEdgeStyle;rounded=0;orthogonalLoop=1;jettySize=auto;html=1;strokeColor=#FFFFFF;" edge="1" parent="1" source="IGG7brt2KkBzuUb34U7j-1">
          <mxGeometry relative="1" as="geometry">
            <mxPoint x="410" y="190" as="targetPoint" />
          </mxGeometry>
        </mxCell>
        <mxCell id="IGG7brt2KkBzuUb34U7j-1" value="SVM at any moment is greater than 3.5" style="rounded=1;whiteSpace=wrap;html=1;" vertex="1" parent="1">
          <mxGeometry x="350" y="100" width="120" height="60" as="geometry" />
        </mxCell>
        <mxCell id="IGG7brt2KkBzuUb34U7j-8" style="edgeStyle=orthogonalEdgeStyle;rounded=0;orthogonalLoop=1;jettySize=auto;html=1;exitX=0.5;exitY=1;exitDx=0;exitDy=0;entryX=0.5;entryY=0;entryDx=0;entryDy=0;strokeColor=#FCFCFC;" edge="1" parent="1" source="IGG7brt2KkBzuUb34U7j-2" target="IGG7brt2KkBzuUb34U7j-3">
          <mxGeometry relative="1" as="geometry" />
        </mxCell>
        <mxCell id="IGG7brt2KkBzuUb34U7j-2" value="Calculate Vertical acceleration" style="rounded=1;whiteSpace=wrap;html=1;" vertex="1" parent="1">
          <mxGeometry x="350" y="190" width="120" height="60" as="geometry" />
        </mxCell>
        <mxCell id="IGG7brt2KkBzuUb34U7j-9" style="edgeStyle=orthogonalEdgeStyle;rounded=0;orthogonalLoop=1;jettySize=auto;html=1;exitX=0.5;exitY=1;exitDx=0;exitDy=0;entryX=0.5;entryY=0;entryDx=0;entryDy=0;strokeColor=#FAFAFA;" edge="1" parent="1" source="IGG7brt2KkBzuUb34U7j-3" target="IGG7brt2KkBzuUb34U7j-4">
          <mxGeometry relative="1" as="geometry" />
        </mxCell>
        <mxCell id="IGG7brt2KkBzuUb34U7j-3" value="Find RMSE between Vertical Acceleration and SVM" style="rounded=1;whiteSpace=wrap;html=1;" vertex="1" parent="1">
          <mxGeometry x="320" y="290" width="180" height="60" as="geometry" />
        </mxCell>
        <mxCell id="IGG7brt2KkBzuUb34U7j-4" value="If RMSE is greater than 0.3 detect Fall" style="rounded=1;whiteSpace=wrap;html=1;" vertex="1" parent="1">
          <mxGeometry x="350" y="390" width="120" height="60" as="geometry" />
        </mxCell>
      </root>
    </mxGraphModel>
  </diagram>
</mxfile>
